/* XPM */ 
static const unsigned char * lexmark_logo_xpm[] = {
"140 35 128 2",
"  	c None",
"! 	c black",
"# 	c #3E3E3E",
"$ 	c #060606",
"% 	c #969695",
"& 	c #D5D5D5",
"' 	c #414141",
"( 	c #171717",
") 	c #A2A2A2",
"* 	c #999999",
"+ 	c #040404",
", 	c #5A5A5A",
"- 	c #9D9D9D",
". 	c #656565",
"0 	c #626262",
"1 	c #C2C2C1",
"2 	c #575757",
"3 	c #7A7A7A",
"4 	c #767676",
"5 	c #494949",
"6 	c #4B4B4B",
"7 	c #4A4A4A",
"8 	c #444444",
"9 	c #4C4C4C",
": 	c #535353",
"; 	c #898989",
"< 	c #4F4F4E",
"= 	c #747474",
"> 	c #696969",
"? 	c #E1E1E1",
"@ 	c #B1B1B1",
"A 	c #5D5D5D",
"B 	c #787878",
"C 	c #686868",
"D 	c #6A6A6A",
"E 	c #777777",
"F 	c #A9A9A9",
"G 	c #6D6D6D",
"H 	c #7D7D7D",
"I 	c #717171",
"J 	c #474747",
"K 	c #868686",
"L 	c #CCCCC0",
"M 	c #ADADAE",
"N 	c #292921",
"O 	c #8B8B83",
"P 	c #1F1F1F",
"Q 	c #D2D2D2",
"R 	c #36362E",
"S 	c #BDBDB4",
"T 	c #818181",
"U 	c #CBCBCB",
"V 	c #141414",
"W 	c #020202",
"X 	c #212121",
"Y 	c #BABABA",
"Z 	c #0A0A0A",
"[ 	c #282828",
"] 	c #B5B5B6",
"^ 	c #696962",
"_ 	c #2E2E28",
"` 	c #606060",
"a 	c #191919",
"b 	c #010101",
"c 	c #3A3A3A",
"d 	c #363636",
"e 	c #6F6F6F",
"f 	c #242424",
"g 	c #1B1B1C",
"h 	c #0D0D0D",
"i 	c #2F2F2F",
"j 	c #2C2C2C",
"k 	c #8F8F8F",
"l 	c #D4D4B3",
"m 	c #050505",
"n 	c #5D5D4E",
"o 	c #111111",
"p 	c #C9C9B7",
"q 	c #323232",
"r 	c #939393",
"s 	c #B3B3B4",
"t 	c #0B0B0F",
"u 	c #181810",
"v 	c #DFDFC1",
"w 	c #3D3D42",
"x 	c #E8E8B8",
"y 	c #929292",
"z 	c #E45282",
"{ 	c #E2A7B8",
"| 	c #DDD9D9",
"} 	c #F9DEE0",
"~ 	c #CC0025",
" !	c #DE4A79",
"!!	c #767677",
"#!	c #EF7888",
"$!	c #C60025",
"%!	c #D01632",
"&!	c #F1F1F1",
"'!	c #CA184A",
"(!	c #CC0032",
")!	c #CB002C",
"*!	c #353539",
"+!	c #D0758B",
",!	c #CF2950",
"-!	c #76767A",
".!	c #8E8E77",
"0!	c #B3B393",
"1!	c #F5A0A1",
"2!	c #D00230",
"3!	c #C90031",
"4!	c #D5072F",
"5!	c #A1A18B",
"6!	c #859393",
"7!	c #FFC9C4",
"8!	c #E0082F",
"9!	c #C0486A",
":!	c #666663",
";!	c #CB464F",
"<!	c #EE9097",
"=!	c #F49D98",
">!	c #868689",
"?!	c #F48E8C",
"@!	c #EA8686",
"A!	c #ED6F71",
"B!	c #FCE2E6",
"C!	c #C80839",
"D!	c #F38774",
"E!	c #F3C6AF",
"                                                                                                                                                                                                                                                                                        ",
"                                                                                                                                                                                                                                                                                        ",
"                                                                                                                                                                                                                                                                                        ",
"                    # ! ! ! ! ! $ %                                                                                                                                                                                                                                                     ",
"                    & ' ! ! ! ( )                                                                                                                                                                                                                                                       ",
"                      * + ! ! ,                                                                                                                                                                                                                                                         ",
"                      - + ! ! .                                                                                                                                                                                                                                                         ",
"                      - + ! ! 0               1 , 2 3 4 4 5 6 7 7 6 5 8 9 : ) ; < = 4 4 4 5 > ?   @ 0 A < 9 7 . > < , 3 B C D                 > 6 E 3 , 7 F                 . B               2 5 E 4 B , 5 7 7 G H 1         B < E 4 4 I J K       I < < 9 ' , L                       ",
"                      - + ! ! 0                 M 8 ! ! ! N O ; ; K : P ! ! ' Q 4 ! ! ! ! R S       Q T ! ! D 1 U % V ! ! ! ! %             M + ! ! ! W . Q                 V X               * V ! ! ! # ; ; H $ ! + A       Y , ! ! ! Z B 1       1 [ ! ! , ]                         ",
"                      - + ! ! 0                   H ! ! ! ^             6 ! 2     E ! ! ! _           2 ! H         D ! ! ! ! '             ` ! ! ! ! a                   ; b + -               G ! ! ! .       ) ( ! ! [         ! ! ! c             X ( -                             ",
"                      - + ! ! 0                   4 ! ! ! `               d 6       [ ! ! ! ,       4 ! ,           e b f ! ! g             h g i ! ! (                   j ! ! c               4 ! ! ! `         6 ! ! ! k       ! ! ! d         l a ( @                               ",
"                      - + ! ! 0                   4 ! ! ! `               I 9       - W ! ! ! @   - ! J             D Z G + ! ! 3         k ! = 4 ! ! (                 & [ ! ! m               = ! ! ! `         T ! ! ! n       ! ! ! d       l o o @                                 ",
"                      - + ! ! 0                   4 ! ! ! `                           2 ! ! ! ' Y P a               G ! p 9 ! ! g         q $ 1 C ! ! (                   I ! ! ! ,             = ! ! ! `         r ! ! ! ^       ! ! ! d     s t u S                                   ",
"                      - + ! ! 0                   4 ! ! ! `       v w                   Z ! ! + o m M               G ! x * ! ! !         $ '   9 ! ! (                   U + ! ! h             = ! ! ! `         , ! ! ! 1       ! ! ! d   @ V c Q                                     ",
"                      - + ! ! 0                   4 ! ! ! A     U _ i                   y ! ! ! ! H                 G ! 1   Z ! ! n     = ! k   7 ! ! (                     J ! ! ! B           = ! ! ! `       ) + ! b T         ! ! ! c s a ! `                                       ",
"                      - + ! ! 0                   4 ! ! ! Z 8 8 ! ! c                     8 ! ! ! <                 G ! ]   ` ! ! (     i V     7 ! ! (                     ] + ! ! j           = ! ! ! j K % , + [ 2 y           ! ! ! i f ! ! ! I                                     ",
"                      - + ! ! 0                   4 ! ! ! f : < X ! c                     ) ! ! ! ! ;               G ! ]     + ! m *   + <     7 ! ! (             z {       ' ! ! ! M         = ! ! ! 8 d ! ! b .               ! ! ! d % Z ! ! m -                                   ",
"                      - + ! ! 0                   4 ! ! ! .       8 q                     X ! ! ! ! V |             G ! ]     j ! ! j # ! F     7 ! ! (           } ~  !      ; W ! ! :         = ! ! ! C   a ! ! $ )             ! ! ! c   > ! ! ! ( 1                                 ",
"                      - + ! ! 0                   !!! ! ! `         j                   < m K i ! ! ! C             G ! ]     r W ! ! ! j       7 ! ! (           #!$!%!        V ! ! a         = ! ! ! 0   T b ! ! X |           ! ! ! d     c ! ! ! ' &!                              ",
"                      - + ! ! 0               T   B ! ! ! `         *                 K ! G   r ! ! ! o @           G ! ]       ( ! ! ! I       7 ! ! (           '!(!)!#!      2 ! ! ! 3       = ! ! ! `     c ! ! ! 6           ! ! ! d     Q g ! ! ! 6                               ",
"                      - + ! ! 0             A C   B ! ! ! `                 a       ] $ q       *!! ! ! q           G ! ]       2 ! ! +         7 ! ! (         +!)!(!(!'!        Z ! ! a       = ! ! ! `       ( ! ! ! 3         ! ! ! d       ] + ! ! ! =                             ",
"                      - + ! ! 0           ) h y   E ! ! ! `               c q     Q P g           o ! ! ! ;         I ! ]         ! ! 7         7 ! ! (         ,!(!(!(!)!+!      A ! ! ! -!    = ! ! ! `         ! ! ! + F       ! ! ! d         T $ ! ! b )                           ",
"                      B ! ! ! A         ) $ ! 1   = ! ! ! A             7 ! .!    j ! 0!          r ! ! ! h ]     &!< ! @         8 ! ;         J ! ! V       1!2!(!(!(!(!'!      F h ! ! [     I ! ! ! ,         G ! ! ! X     - ! ! ! i           C ! ! ! P Q                         ",
"                    I Z ! ! ! ( ` # 8 f ! ! a U K o b ! ! Z 2 D > 0 j ! ! b Y U X ! Z ` M       F > o ! ! ! o K ) . m W a @       4 o       & , W ! ! ! c     ,!)!(!(!(!3!4!1!  F A ! ! ! ! ` % ! ! ! ! ! < U       c ! ! ! [ ; ! ! ! ! ! <       s e W ! ! ! m D s                     ",
"                    7 . B 4 4 4 9 9 9 < I . K   I 2 B 4 E G 7 J J 5 < : G G   k < 4 4 C 5!      I > = 4 4 B ` , C ` ` 3 : H         -       F J e 4 4 B 9 6!7!8!3!(!(!(!(!~ 9!  4 D 4 4 4 4 D C , 4 4 4 = 5 *         A I G , G , 4 4 4 = 5 *     H C 4 E - - 3 :!5!                    ",
"                                                                                                                                                              ;!)!(!(!(!(!4!<!                                                                                                          ",
"                                                                                                                                                              =!2!(!(!(!)!,!                                                                              r - H Y >!                    ",
"                                                                                                                                                                ,!(!(!(!)!?!                                                                              Y F F 3 ;                     ",
"                                                                                                                                                                @!)!(!(!'!|                                                                               | Q & F &                     ",
"                                                                                                                                                                  '!(!)!A!                                                                                                              ",
"                                                                                                                                                                  +!~ '!B!                                                                                                              ",
"                                                                                                                                                                    C!A!                                                                                                                ",
"                                                                                                                                                                    D!E!                                                                                                                ",
"                                                                                                                                                                                                                                                                                        ",
"                                                                                                                                                                                                                                                                                        "};